PathFileType	4	(X/Y/Z)	C:/Users/opensim2020/Desktop/walking_exp_matlab/subject06_walking18_straight_04.trc	
DataRate	CameraRate	NumFrames	NumMarkers	Units	OrigDataRate	OrigDataStartFrame	OrigNumFrames	
100.00	100.00	4	47	mm	100.00	4725	409	
Frame#	Time	LFHD			RFHD			LBHD			RBHD			C7			T10			CLAV			STRN			RBAK			LSHO			LUPA			LELB			LFRM			LWRA			LWRB			LFIN			RSHO			RUPA			RELB			RFRM			RWRA			RWRB			RFIN			LASI			RASI			LPSI			RPSI			LTHI			LKNE			LTIB			LANK			LHEE			LTOE			RTHI			RKNE			RTIB			RANK			RHEE			RTOE			*39			*40			*41			*42			*43			*44			*45			*46			
		X1	Y1	Z1	X2	Y2	Z2	X3	Y3	Z3	X4	Y4	Z4	X5	Y5	Z5	X6	Y6	Z6	X7	Y7	Z7	X8	Y8	Z8	X9	Y9	Z9	X10	Y10	Z10	X11	Y11	Z11	X12	Y12	Z12	X13	Y13	Z13	X14	Y14	Z14	X15	Y15	Z15	X16	Y16	Z16	X17	Y17	Z17	X18	Y18	Z18	X19	Y19	Z19	X20	Y20	Z20	X21	Y21	Z21	X22	Y22	Z22	X23	Y23	Z23	X24	Y24	Z24	X25	Y25	Z25	X26	Y26	Z26	X27	Y27	Z27	X28	Y28	Z28	X29	Y29	Z29	X30	Y30	Z30	X31	Y31	Z31	X32	Y32	Z32	X33	Y33	Z33	X34	Y34	Z34	X35	Y35	Z35	X36	Y36	Z36	X37	Y37	Z37	X38	Y38	Z38	X39	Y39	Z39	X40	Y40	Z40	X41	Y41	Z41	X42	Y42	Z42	X43	Y43	Z43	X44	Y44	Z44	X45	Y45	Z45	X46	Y46	Z46	X47	Y47	Z47	

205	2.040	-946.34985	-14.21409	1647.69934	-1078.31995	-23.82962	1640.45605	-957.18671	116.96118	1590.05151	-1086.14600	105.66277	1587.82019	-1013.62848	110.88100	1435.50610	-1021.29071	139.45691	1104.71118	-1011.32892	0.38178	1358.79517	-1009.32532	-39.69559	1182.92712	-1096.11670	181.65388	1264.09985	-849.80701	61.16210	1387.55493	-784.55646	106.30048	1189.94543	-776.81635	137.32098	1081.44214	-750.30487	145.85960	931.74445	-779.30066	97.78527	807.56891	-754.46387	165.60988	814.32043	-747.31989	140.39116	726.81769	-1174.02771	42.12566	1390.84583	-1266.01343	71.98649	1192.85547	-1281.15784	53.66046	1073.85547	-1291.70337	0.84133	967.42615	-1249.06604	-106.03843	865.51086	-1290.06335	-57.23246	843.93817	-1286.81177	-119.84527	787.81744	-919.36890	-49.79824	952.09338	-1138.98523	-32.22074	948.83673	-933.66431	110.65890	976.13849	-1102.72375	116.55103	977.26685	-842.01776	-28.82455	643.06921	-863.75043	-65.74128	486.18338	-864.39478	-90.74748	230.88017	-902.77802	-129.59778	62.14020	-949.74951	-94.42296	45.62066	-909.50592	-277.96414	43.92160	-1176.50317	74.62839	619.00409	-1157.24500	99.03019	494.13678	-1148.63367	241.62108	263.70087	-1101.07568	323.90863	95.74048	-1056.07007	369.33417	83.04765	-1099.55432	183.78262	29.81167	-1011.94220	82.43258	1685.13123																					 
206	2.050	-944.69116	-20.58790	1648.86353	-1076.69690	-30.03395	1641.59351	-955.42798	110.59730	1591.10999	-1084.29395	99.27283	1588.82813	-1011.76685	104.31546	1436.23242	-1020.09442	132.39668	1105.70227	-1009.67828	-6.13921	1359.94043	-1007.70526	-46.49411	1184.12427	-1094.43445	174.94978	1264.94507	-848.13232	54.73399	1388.56311	-782.91644	98.87865	1190.67688	-775.02728	128.99582	1081.93616	-748.73138	137.05170	932.24451	-778.44720	88.70405	808.34778	-752.97729	156.44449	814.82507	-746.12921	130.83957	727.33813	-1172.39539	35.70393	1391.94507	-1264.01306	65.57175	1193.79822	-1278.99878	47.32422	1074.68091	-1289.86218	-4.44270	967.66254	-1247.70642	-110.24921	864.48291	-1288.46643	-61.07891	843.46301	-1285.70142	-123.08733	786.68494	-917.79401	-56.91294	953.56952	-1137.30615	-39.44819	949.75616	-932.50696	103.55355	977.53876	-1101.44910	109.34624	978.27441	-840.77020	-35.23335	644.31976	-862.56964	-71.34167	487.10187	-863.42242	-93.73578	231.42992	-902.63287	-130.35410	62.33219	-949.48297	-94.86185	45.96805	-909.36859	-278.62753	43.27705	-1175.38721	67.47792	619.62695	-1156.44482	91.67327	494.82840	-1148.52588	237.07298	265.97018	-1101.60107	321.91971	99.16245	-1056.64490	367.54645	87.36349	-1099.62891	183.58998	29.75735	-1010.31146	76.20905	1686.17200																					 
207	2.060	-942.92383	-26.90455	1650.19214	-1075.01465	-36.31498	1642.95825	-953.59326	104.42405	1592.49719	-1082.61108	93.11906	1590.17798	-1010.14355	98.14792	1437.52051	-1018.67908	125.48155	1107.00317	-1008.03363	-12.54495	1361.29236	-1006.14594	-53.23795	1185.57458	-1092.87134	168.20598	1266.11670	-846.50391	48.41479	1389.89539	-781.27954	91.44659	1191.69617	-773.33331	120.90144	1082.89783	-746.97607	127.95921	933.11548	-777.51721	79.49851	809.25867	-751.43231	146.82980	815.37646	-744.88147	121.00235	728.21161	-1170.71545	29.24508	1393.34729	-1261.76990	59.22509	1194.90393	-1276.77734	40.90471	1075.83093	-1287.90820	-9.75941	968.18127	-1246.27466	-114.30192	863.58734	-1286.95117	-64.81961	843.21246	-1284.57214	-126.08389	785.84222	-916.17767	-63.95385	955.21967	-1135.69348	-46.44835	950.89984	-931.36456	96.48062	979.12079	-1100.18481	102.58225	979.65997	-839.66211	-41.62179	645.72961	-861.63422	-76.35641	488.02344	-862.84814	-96.77835	232.23804	-902.50470	-131.15878	62.47995	-949.08521	-95.07295	46.22192	-910.24835	-279.12375	42.61408	-1174.37195	59.99709	620.34833	-1155.57202	83.67950	495.47742	-1148.20007	232.48122	268.76746	-1102.11731	319.67792	102.91805	-1057.56824	365.61935	92.18485	-1099.63501	183.35027	29.71056	-1008.54700	69.88357	1687.55750																					 
208	2.070	-941.48773	-33.29090	1651.78040	-1073.36194	-42.59882	1644.46008	-951.94659	97.98386	1594.08862	-1080.89380	86.85861	1591.77588	-1008.54468	91.86377	1438.82690	-1017.09503	118.65881	1108.50989	-1006.33356	-19.19823	1362.98560	-1004.54541	-60.10274	1187.26929	-1091.43909	161.56273	1267.60657	-844.90796	42.07219	1391.41040	-779.62476	83.93341	1192.97302	-771.56604	112.41235	1083.99451	-745.38763	118.45311	934.21930	-776.42010	69.70966	810.65387	-749.92206	136.76324	816.24176	-743.54749	110.63653	729.31439	-1169.01807	22.79250	1395.03320	-1259.95764	52.66782	1196.60852	-1274.54333	34.55866	1077.26196	-1285.94019	-14.96665	968.99615	-1244.79773	-118.20991	862.85187	-1285.44824	-68.42831	843.27014	-1283.30847	-128.94725	785.09637	-914.59412	-70.91840	956.95361	-1133.94849	-53.40301	952.31415	-930.07855	89.38208	980.71045	-1098.58472	95.33202	980.95624	-838.71094	-47.68116	646.97870	-860.82660	-80.88763	488.81805	-862.45087	-99.24834	232.82829	-902.57086	-131.64243	62.57822	-948.84644	-95.10365	46.38128	-911.35388	-279.31329	42.19046	-1173.38257	52.36306	621.17108	-1154.70117	75.02322	496.12723	-1148.19678	226.95558	271.40869	-1102.81360	317.30975	107.17464	-1057.88428	363.04062	97.33495	-1099.62585	183.11043	29.73889	-1006.84637	63.54602	1689.12683																					 
